<mxfile host="app.diagrams.net" modified="2024-06-22T22:49:20.206Z" agent="Mozilla/5.0 (Windows NT 10.0; Win64; x64) AppleWebKit/537.36 (KHTML, like Gecko) Chrome/126.0.0.0 Safari/537.36" etag="lo-4YVwbqQIq_4IWVs0y" version="24.6.2" type="github">
  <diagram name="PÃ¡gina-1" id="snt_6slQWkUJ_SeUTCDy">
    <mxGraphModel dx="574" dy="309" grid="1" gridSize="10" guides="1" tooltips="1" connect="1" arrows="1" fold="1" page="1" pageScale="1" pageWidth="827" pageHeight="1169" math="0" shadow="0">
      <root>
        <mxCell id="0" />
        <mxCell id="1" parent="0" />
        <mxCell id="KOg-pLwdYSGmGfI16oDE-7" value="" style="edgeStyle=orthogonalEdgeStyle;rounded=0;orthogonalLoop=1;jettySize=auto;html=1;" edge="1" parent="1" source="KOg-pLwdYSGmGfI16oDE-1" target="KOg-pLwdYSGmGfI16oDE-3">
          <mxGeometry relative="1" as="geometry" />
        </mxCell>
        <mxCell id="KOg-pLwdYSGmGfI16oDE-1" value="Creates" style="shape=rhombus;perimeter=rhombusPerimeter;whiteSpace=wrap;html=1;align=center;" vertex="1" parent="1">
          <mxGeometry x="330" y="320" width="120" height="60" as="geometry" />
        </mxCell>
        <mxCell id="KOg-pLwdYSGmGfI16oDE-6" value="" style="edgeStyle=orthogonalEdgeStyle;rounded=0;orthogonalLoop=1;jettySize=auto;html=1;" edge="1" parent="1" source="KOg-pLwdYSGmGfI16oDE-2" target="KOg-pLwdYSGmGfI16oDE-1">
          <mxGeometry relative="1" as="geometry" />
        </mxCell>
        <mxCell id="KOg-pLwdYSGmGfI16oDE-2" value="Users" style="whiteSpace=wrap;html=1;align=center;" vertex="1" parent="1">
          <mxGeometry x="130" y="330" width="100" height="40" as="geometry" />
        </mxCell>
        <mxCell id="KOg-pLwdYSGmGfI16oDE-3" value="Accounts" style="whiteSpace=wrap;html=1;align=center;" vertex="1" parent="1">
          <mxGeometry x="560" y="330" width="100" height="40" as="geometry" />
        </mxCell>
        <mxCell id="KOg-pLwdYSGmGfI16oDE-18" value="" style="edgeStyle=orthogonalEdgeStyle;rounded=0;orthogonalLoop=1;jettySize=auto;html=1;" edge="1" parent="1" source="KOg-pLwdYSGmGfI16oDE-14" target="KOg-pLwdYSGmGfI16oDE-3">
          <mxGeometry relative="1" as="geometry" />
        </mxCell>
        <mxCell id="KOg-pLwdYSGmGfI16oDE-14" value="Personal_Accounts" style="ellipse;whiteSpace=wrap;html=1;align=center;" vertex="1" parent="1">
          <mxGeometry x="730" y="320" width="120" height="50" as="geometry" />
        </mxCell>
        <mxCell id="KOg-pLwdYSGmGfI16oDE-15" value="Business_Accounts" style="ellipse;whiteSpace=wrap;html=1;align=center;" vertex="1" parent="1">
          <mxGeometry x="690" y="460" width="120" height="50" as="geometry" />
        </mxCell>
        <mxCell id="KOg-pLwdYSGmGfI16oDE-16" value="Bank_Accounts" style="ellipse;whiteSpace=wrap;html=1;align=center;" vertex="1" parent="1">
          <mxGeometry x="730" y="220" width="120" height="50" as="geometry" />
        </mxCell>
        <mxCell id="KOg-pLwdYSGmGfI16oDE-17" value="" style="endArrow=classic;html=1;rounded=0;entryX=1;entryY=0;entryDx=0;entryDy=0;exitX=0.281;exitY=0.96;exitDx=0;exitDy=0;exitPerimeter=0;" edge="1" parent="1" source="KOg-pLwdYSGmGfI16oDE-16">
          <mxGeometry width="50" height="50" relative="1" as="geometry">
            <mxPoint x="766.0494501852713" y="265.6128338160852" as="sourcePoint" />
            <mxPoint x="660" y="330" as="targetPoint" />
          </mxGeometry>
        </mxCell>
        <mxCell id="KOg-pLwdYSGmGfI16oDE-19" value="" style="endArrow=classic;html=1;rounded=0;exitX=0;exitY=0;exitDx=0;exitDy=0;" edge="1" parent="1" source="KOg-pLwdYSGmGfI16oDE-15">
          <mxGeometry width="50" height="50" relative="1" as="geometry">
            <mxPoint x="580" y="420" as="sourcePoint" />
            <mxPoint x="630" y="370" as="targetPoint" />
          </mxGeometry>
        </mxCell>
        <mxCell id="KOg-pLwdYSGmGfI16oDE-43" value="" style="group" vertex="1" connectable="0" parent="1">
          <mxGeometry x="870" y="300" width="107" height="110" as="geometry" />
        </mxCell>
        <mxCell id="KOg-pLwdYSGmGfI16oDE-22" value="&lt;pre&gt;id&lt;/pre&gt;" style="text;html=1;align=left;verticalAlign=middle;resizable=0;points=[];autosize=1;strokeColor=none;fillColor=none;" vertex="1" parent="KOg-pLwdYSGmGfI16oDE-43">
          <mxGeometry x="20" width="40" height="50" as="geometry" />
        </mxCell>
        <mxCell id="KOg-pLwdYSGmGfI16oDE-28" value="&lt;pre&gt;description&lt;/pre&gt;" style="text;html=1;align=center;verticalAlign=middle;resizable=0;points=[];autosize=1;strokeColor=none;fillColor=none;" vertex="1" parent="KOg-pLwdYSGmGfI16oDE-43">
          <mxGeometry x="7" y="60" width="100" height="50" as="geometry" />
        </mxCell>
        <mxCell id="KOg-pLwdYSGmGfI16oDE-34" value="" style="group" vertex="1" connectable="0" parent="KOg-pLwdYSGmGfI16oDE-43">
          <mxGeometry y="20" width="90" height="70" as="geometry" />
        </mxCell>
        <mxCell id="KOg-pLwdYSGmGfI16oDE-33" value="&lt;pre&gt;balance&lt;/pre&gt;" style="text;html=1;align=left;verticalAlign=middle;resizable=0;points=[];autosize=1;strokeColor=none;fillColor=none;" vertex="1" parent="KOg-pLwdYSGmGfI16oDE-34">
          <mxGeometry x="20" y="20" width="70" height="50" as="geometry" />
        </mxCell>
        <mxCell id="KOg-pLwdYSGmGfI16oDE-24" value="&lt;pre&gt;username&lt;/pre&gt;" style="text;html=1;align=center;verticalAlign=middle;resizable=0;points=[];autosize=1;strokeColor=none;fillColor=none;" vertex="1" parent="KOg-pLwdYSGmGfI16oDE-34">
          <mxGeometry x="7" width="80" height="50" as="geometry" />
        </mxCell>
        <mxCell id="KOg-pLwdYSGmGfI16oDE-21" value="" style="verticalLabelPosition=bottom;verticalAlign=top;html=1;shape=mxgraph.flowchart.on-page_reference;fillColor=#3277D2;strokeColor=#5995e3;" vertex="1" parent="KOg-pLwdYSGmGfI16oDE-34">
          <mxGeometry width="10" height="10" as="geometry" />
        </mxCell>
        <mxCell id="KOg-pLwdYSGmGfI16oDE-23" value="" style="verticalLabelPosition=bottom;verticalAlign=top;html=1;shape=mxgraph.flowchart.on-page_reference;fillColor=#000000;strokeColor=#000000;" vertex="1" parent="KOg-pLwdYSGmGfI16oDE-34">
          <mxGeometry y="20" width="10" height="10" as="geometry" />
        </mxCell>
        <mxCell id="KOg-pLwdYSGmGfI16oDE-27" value="" style="verticalLabelPosition=bottom;verticalAlign=top;html=1;shape=mxgraph.flowchart.on-page_reference;fillColor=#000000;strokeColor=#000000;" vertex="1" parent="KOg-pLwdYSGmGfI16oDE-34">
          <mxGeometry y="60" width="10" height="10" as="geometry" />
        </mxCell>
        <mxCell id="KOg-pLwdYSGmGfI16oDE-32" value="" style="verticalLabelPosition=bottom;verticalAlign=top;html=1;shape=mxgraph.flowchart.on-page_reference;fillColor=#000000;strokeColor=#000000;" vertex="1" parent="KOg-pLwdYSGmGfI16oDE-34">
          <mxGeometry y="40" width="10" height="10" as="geometry" />
        </mxCell>
        <mxCell id="KOg-pLwdYSGmGfI16oDE-45" value="&lt;pre&gt;id&lt;/pre&gt;" style="text;html=1;align=left;verticalAlign=middle;resizable=0;points=[];autosize=1;strokeColor=none;fillColor=none;" vertex="1" parent="1">
          <mxGeometry x="880" y="400" width="40" height="50" as="geometry" />
        </mxCell>
        <mxCell id="KOg-pLwdYSGmGfI16oDE-65" value="" style="group" vertex="1" connectable="0" parent="1">
          <mxGeometry x="860" y="420" width="130" height="130" as="geometry" />
        </mxCell>
        <mxCell id="KOg-pLwdYSGmGfI16oDE-64" value="&lt;pre&gt;tax_id&lt;/pre&gt;" style="text;html=1;align=left;verticalAlign=middle;resizable=0;points=[];autosize=1;strokeColor=none;fillColor=none;container=0;" vertex="1" parent="KOg-pLwdYSGmGfI16oDE-65">
          <mxGeometry x="20" y="80" width="60" height="50" as="geometry" />
        </mxCell>
        <mxCell id="KOg-pLwdYSGmGfI16oDE-46" value="&lt;pre&gt;description&lt;/pre&gt;" style="text;html=1;align=center;verticalAlign=middle;resizable=0;points=[];autosize=1;strokeColor=none;fillColor=none;" vertex="1" parent="KOg-pLwdYSGmGfI16oDE-65">
          <mxGeometry x="7" y="40" width="100" height="50" as="geometry" />
        </mxCell>
        <mxCell id="KOg-pLwdYSGmGfI16oDE-47" value="" style="group" vertex="1" connectable="0" parent="KOg-pLwdYSGmGfI16oDE-65">
          <mxGeometry width="90" height="70" as="geometry" />
        </mxCell>
        <mxCell id="KOg-pLwdYSGmGfI16oDE-48" value="&lt;pre&gt;balance&lt;/pre&gt;" style="text;html=1;align=left;verticalAlign=middle;resizable=0;points=[];autosize=1;strokeColor=none;fillColor=none;" vertex="1" parent="KOg-pLwdYSGmGfI16oDE-47">
          <mxGeometry x="20" y="20" width="70" height="50" as="geometry" />
        </mxCell>
        <mxCell id="KOg-pLwdYSGmGfI16oDE-49" value="&lt;pre&gt;username&lt;/pre&gt;" style="text;html=1;align=center;verticalAlign=middle;resizable=0;points=[];autosize=1;strokeColor=none;fillColor=none;" vertex="1" parent="KOg-pLwdYSGmGfI16oDE-47">
          <mxGeometry x="7" width="80" height="50" as="geometry" />
        </mxCell>
        <mxCell id="KOg-pLwdYSGmGfI16oDE-50" value="" style="verticalLabelPosition=bottom;verticalAlign=top;html=1;shape=mxgraph.flowchart.on-page_reference;fillColor=#3277D2;strokeColor=#5995e3;" vertex="1" parent="KOg-pLwdYSGmGfI16oDE-47">
          <mxGeometry width="10" height="10" as="geometry" />
        </mxCell>
        <mxCell id="KOg-pLwdYSGmGfI16oDE-51" value="" style="verticalLabelPosition=bottom;verticalAlign=top;html=1;shape=mxgraph.flowchart.on-page_reference;fillColor=#000000;strokeColor=#000000;" vertex="1" parent="KOg-pLwdYSGmGfI16oDE-47">
          <mxGeometry y="20" width="10" height="10" as="geometry" />
        </mxCell>
        <mxCell id="KOg-pLwdYSGmGfI16oDE-52" value="" style="verticalLabelPosition=bottom;verticalAlign=top;html=1;shape=mxgraph.flowchart.on-page_reference;fillColor=#000000;strokeColor=#000000;" vertex="1" parent="KOg-pLwdYSGmGfI16oDE-47">
          <mxGeometry y="60" width="10" height="10" as="geometry" />
        </mxCell>
        <mxCell id="KOg-pLwdYSGmGfI16oDE-53" value="" style="verticalLabelPosition=bottom;verticalAlign=top;html=1;shape=mxgraph.flowchart.on-page_reference;fillColor=#000000;strokeColor=#000000;" vertex="1" parent="KOg-pLwdYSGmGfI16oDE-47">
          <mxGeometry y="40" width="10" height="10" as="geometry" />
        </mxCell>
        <mxCell id="KOg-pLwdYSGmGfI16oDE-61" value="" style="verticalLabelPosition=bottom;verticalAlign=top;html=1;shape=mxgraph.flowchart.on-page_reference;fillColor=#000000;strokeColor=#000000;" vertex="1" parent="KOg-pLwdYSGmGfI16oDE-65">
          <mxGeometry y="80" width="10" height="10" as="geometry" />
        </mxCell>
        <mxCell id="KOg-pLwdYSGmGfI16oDE-62" value="&lt;pre&gt;name_business&lt;/pre&gt;" style="text;html=1;align=left;verticalAlign=middle;resizable=0;points=[];autosize=1;strokeColor=none;fillColor=none;" vertex="1" parent="KOg-pLwdYSGmGfI16oDE-65">
          <mxGeometry x="20" y="60" width="110" height="50" as="geometry" />
        </mxCell>
        <mxCell id="KOg-pLwdYSGmGfI16oDE-63" value="" style="verticalLabelPosition=bottom;verticalAlign=top;html=1;shape=mxgraph.flowchart.on-page_reference;fillColor=#000000;strokeColor=#000000;" vertex="1" parent="KOg-pLwdYSGmGfI16oDE-65">
          <mxGeometry y="100" width="10" height="10" as="geometry" />
        </mxCell>
        <mxCell id="KOg-pLwdYSGmGfI16oDE-66" value="" style="endArrow=classic;html=1;rounded=0;entryX=0.737;entryY=0.068;entryDx=0;entryDy=0;exitX=0.145;exitY=0.855;exitDx=0;exitDy=0;exitPerimeter=0;entryPerimeter=0;" edge="1" parent="1" source="KOg-pLwdYSGmGfI16oDE-50" target="KOg-pLwdYSGmGfI16oDE-15">
          <mxGeometry width="50" height="50" relative="1" as="geometry">
            <mxPoint x="840" y="470" as="sourcePoint" />
            <mxPoint x="890" y="420" as="targetPoint" />
          </mxGeometry>
        </mxCell>
        <mxCell id="KOg-pLwdYSGmGfI16oDE-67" value="" style="endArrow=classic;html=1;rounded=0;entryX=1;entryY=0;entryDx=0;entryDy=0;exitX=0;exitY=0.5;exitDx=0;exitDy=0;exitPerimeter=0;" edge="1" parent="1" source="KOg-pLwdYSGmGfI16oDE-51" target="KOg-pLwdYSGmGfI16oDE-15">
          <mxGeometry width="50" height="50" relative="1" as="geometry">
            <mxPoint x="840" y="470" as="sourcePoint" />
            <mxPoint x="890" y="420" as="targetPoint" />
          </mxGeometry>
        </mxCell>
        <mxCell id="KOg-pLwdYSGmGfI16oDE-68" value="" style="endArrow=classic;html=1;rounded=0;entryX=0.953;entryY=0.308;entryDx=0;entryDy=0;exitX=0;exitY=0.5;exitDx=0;exitDy=0;exitPerimeter=0;entryPerimeter=0;" edge="1" parent="1" source="KOg-pLwdYSGmGfI16oDE-53" target="KOg-pLwdYSGmGfI16oDE-15">
          <mxGeometry width="50" height="50" relative="1" as="geometry">
            <mxPoint x="840" y="470" as="sourcePoint" />
            <mxPoint x="890" y="420" as="targetPoint" />
          </mxGeometry>
        </mxCell>
        <mxCell id="KOg-pLwdYSGmGfI16oDE-69" value="" style="endArrow=classic;html=1;rounded=0;entryX=1;entryY=0.5;entryDx=0;entryDy=0;exitX=-0.28;exitY=0.38;exitDx=0;exitDy=0;exitPerimeter=0;" edge="1" parent="1" source="KOg-pLwdYSGmGfI16oDE-52" target="KOg-pLwdYSGmGfI16oDE-15">
          <mxGeometry width="50" height="50" relative="1" as="geometry">
            <mxPoint x="840" y="470" as="sourcePoint" />
            <mxPoint x="890" y="420" as="targetPoint" />
          </mxGeometry>
        </mxCell>
        <mxCell id="KOg-pLwdYSGmGfI16oDE-71" value="" style="endArrow=classic;html=1;rounded=0;entryX=0.94;entryY=0.748;entryDx=0;entryDy=0;entryPerimeter=0;exitX=0;exitY=0.5;exitDx=0;exitDy=0;exitPerimeter=0;" edge="1" parent="1" source="KOg-pLwdYSGmGfI16oDE-61" target="KOg-pLwdYSGmGfI16oDE-15">
          <mxGeometry width="50" height="50" relative="1" as="geometry">
            <mxPoint x="840" y="470" as="sourcePoint" />
            <mxPoint x="890" y="420" as="targetPoint" />
          </mxGeometry>
        </mxCell>
        <mxCell id="KOg-pLwdYSGmGfI16oDE-72" value="" style="endArrow=classic;html=1;rounded=0;entryX=1;entryY=1;entryDx=0;entryDy=0;exitX=0;exitY=0.5;exitDx=0;exitDy=0;exitPerimeter=0;" edge="1" parent="1" source="KOg-pLwdYSGmGfI16oDE-63" target="KOg-pLwdYSGmGfI16oDE-15">
          <mxGeometry width="50" height="50" relative="1" as="geometry">
            <mxPoint x="840" y="470" as="sourcePoint" />
            <mxPoint x="890" y="420" as="targetPoint" />
          </mxGeometry>
        </mxCell>
        <mxCell id="KOg-pLwdYSGmGfI16oDE-74" value="" style="endArrow=classic;html=1;rounded=0;entryX=1;entryY=0;entryDx=0;entryDy=0;exitX=0;exitY=0.5;exitDx=0;exitDy=0;exitPerimeter=0;" edge="1" parent="1" source="KOg-pLwdYSGmGfI16oDE-21" target="KOg-pLwdYSGmGfI16oDE-14">
          <mxGeometry width="50" height="50" relative="1" as="geometry">
            <mxPoint x="840" y="350" as="sourcePoint" />
            <mxPoint x="840" y="310" as="targetPoint" />
          </mxGeometry>
        </mxCell>
        <mxCell id="KOg-pLwdYSGmGfI16oDE-75" value="" style="edgeStyle=orthogonalEdgeStyle;rounded=0;orthogonalLoop=1;jettySize=auto;html=1;" edge="1" parent="1" source="KOg-pLwdYSGmGfI16oDE-23" target="KOg-pLwdYSGmGfI16oDE-14">
          <mxGeometry relative="1" as="geometry" />
        </mxCell>
        <mxCell id="KOg-pLwdYSGmGfI16oDE-76" value="" style="endArrow=classic;html=1;rounded=0;entryX=0.957;entryY=0.708;entryDx=0;entryDy=0;entryPerimeter=0;exitX=0;exitY=0.5;exitDx=0;exitDy=0;exitPerimeter=0;" edge="1" parent="1" source="KOg-pLwdYSGmGfI16oDE-32" target="KOg-pLwdYSGmGfI16oDE-14">
          <mxGeometry width="50" height="50" relative="1" as="geometry">
            <mxPoint x="840" y="390" as="sourcePoint" />
            <mxPoint x="890" y="340" as="targetPoint" />
          </mxGeometry>
        </mxCell>
        <mxCell id="KOg-pLwdYSGmGfI16oDE-77" value="" style="endArrow=classic;html=1;rounded=0;entryX=1;entryY=1;entryDx=0;entryDy=0;exitX=0;exitY=0.5;exitDx=0;exitDy=0;exitPerimeter=0;" edge="1" parent="1" source="KOg-pLwdYSGmGfI16oDE-27" target="KOg-pLwdYSGmGfI16oDE-14">
          <mxGeometry width="50" height="50" relative="1" as="geometry">
            <mxPoint x="840" y="390" as="sourcePoint" />
            <mxPoint x="890" y="340" as="targetPoint" />
          </mxGeometry>
        </mxCell>
      </root>
    </mxGraphModel>
  </diagram>
</mxfile>
